# xmcd
#
# Track frame offsets:
#	150
#	14899
#	33236
#	49559
#	70768
#	89558
#	109656
#	127290
#	146322
#	165579
#	180465
#	195740
#
# Disc length: 2782 seconds
# Revision: 0
# Processed by: cddbd v1.5.2PL0 Copyright (c) Steve Scherf et al.
# Submitted via: dBpowerAMP V12.0
#
DISCID=a50adc0c
DTITLE=Shake Russell - Chasing the Song
DYEAR=2018
DGENRE=Country
TTITLE0=Traveling Dog
TTITLE1=Never Miss a Chance
TTITLE2=Dream Big
TTITLE3=Sit with Me
TTITLE4=The Wishing Chair
TTITLE5=Me and Mark Twain
TTITLE6=Grand Daddy's Silver Dollar
TTITLE7=New Blue Peace
TTITLE8=The Answer is Love
TTITLE9=Sweet Water
TTITLE10=You Don't Need Me Now
TTITLE11=You Wouldn't Know Me
EXTD=
EXTT0=
EXTT1=
EXTT2=
EXTT3=
EXTT4=
EXTT5=
EXTT6=
EXTT7=
EXTT8=
EXTT9=
EXTT10=
EXTT11=
PLAYORDER=
